<mxfile host="app.diagrams.net" agent="Mozilla/5.0 (Windows NT 10.0; Win64; x64) AppleWebKit/537.36 (KHTML, like Gecko) Chrome/133.0.0.0 Safari/537.36" version="26.0.15">
  <diagram name="Stránka-1" id="0nZLXH22_bBQ2f5gnhHG">
    <mxGraphModel dx="919" dy="603" grid="1" gridSize="10" guides="1" tooltips="1" connect="1" arrows="1" fold="1" page="1" pageScale="1" pageWidth="3300" pageHeight="4681" math="0" shadow="0">
      <root>
        <mxCell id="0" />
        <mxCell id="1" parent="0" />
        <mxCell id="ZliIxLHXJezebO3cyz0a-1" value="CI workflow" style="swimlane;whiteSpace=wrap;html=1;" vertex="1" parent="1">
          <mxGeometry x="300" y="60" width="200" height="110" as="geometry" />
        </mxCell>
        <mxCell id="ZliIxLHXJezebO3cyz0a-2" value="sestavení (build)" style="whiteSpace=wrap;html=1;" vertex="1" parent="ZliIxLHXJezebO3cyz0a-1">
          <mxGeometry y="20" width="200" height="30" as="geometry" />
        </mxCell>
        <mxCell id="ZliIxLHXJezebO3cyz0a-3" value="jednotkové testování (unit testing)" style="whiteSpace=wrap;html=1;" vertex="1" parent="ZliIxLHXJezebO3cyz0a-1">
          <mxGeometry y="50" width="200" height="30" as="geometry" />
        </mxCell>
        <mxCell id="ZliIxLHXJezebO3cyz0a-4" value="zobrazení výsledků testu" style="whiteSpace=wrap;html=1;" vertex="1" parent="ZliIxLHXJezebO3cyz0a-1">
          <mxGeometry y="80" width="200" height="30" as="geometry" />
        </mxCell>
        <mxCell id="ZliIxLHXJezebO3cyz0a-5" value="CD workflow" style="swimlane;whiteSpace=wrap;html=1;" vertex="1" parent="1">
          <mxGeometry x="560" y="60" width="200" height="110" as="geometry" />
        </mxCell>
        <mxCell id="ZliIxLHXJezebO3cyz0a-6" value="hledání existujícího artefaktu" style="whiteSpace=wrap;html=1;" vertex="1" parent="ZliIxLHXJezebO3cyz0a-5">
          <mxGeometry y="20" width="200" height="30" as="geometry" />
        </mxCell>
        <mxCell id="ZliIxLHXJezebO3cyz0a-7" value="run unit test" style="whiteSpace=wrap;html=1;" vertex="1" parent="ZliIxLHXJezebO3cyz0a-5">
          <mxGeometry y="50" width="200" height="30" as="geometry" />
        </mxCell>
        <mxCell id="ZliIxLHXJezebO3cyz0a-8" value="display results" style="whiteSpace=wrap;html=1;" vertex="1" parent="ZliIxLHXJezebO3cyz0a-5">
          <mxGeometry y="80" width="200" height="30" as="geometry" />
        </mxCell>
        <mxCell id="ZliIxLHXJezebO3cyz0a-13" value="CI workflow" style="shape=umlFrame;whiteSpace=wrap;html=1;pointerEvents=0;recursiveResize=0;container=1;collapsible=0;width=160;" vertex="1" parent="1">
          <mxGeometry x="590" y="310" width="1100" height="220" as="geometry" />
        </mxCell>
        <mxCell id="ZliIxLHXJezebO3cyz0a-25" style="edgeStyle=orthogonalEdgeStyle;rounded=0;orthogonalLoop=1;jettySize=auto;html=1;" edge="1" parent="ZliIxLHXJezebO3cyz0a-13" source="ZliIxLHXJezebO3cyz0a-22" target="ZliIxLHXJezebO3cyz0a-24">
          <mxGeometry relative="1" as="geometry" />
        </mxCell>
        <mxCell id="ZliIxLHXJezebO3cyz0a-22" value="sestavení&lt;div&gt;(build)&lt;/div&gt;" style="html=1;align=center;verticalAlign=middle;rounded=1;absoluteArcSize=1;arcSize=10;dashed=0;whiteSpace=wrap;" vertex="1" parent="ZliIxLHXJezebO3cyz0a-13">
          <mxGeometry x="90" y="85" width="140" height="40" as="geometry" />
        </mxCell>
        <mxCell id="ZliIxLHXJezebO3cyz0a-27" style="edgeStyle=orthogonalEdgeStyle;rounded=0;orthogonalLoop=1;jettySize=auto;html=1;entryX=0;entryY=0.5;entryDx=0;entryDy=0;" edge="1" parent="ZliIxLHXJezebO3cyz0a-13" source="ZliIxLHXJezebO3cyz0a-24" target="ZliIxLHXJezebO3cyz0a-26">
          <mxGeometry relative="1" as="geometry" />
        </mxCell>
        <mxCell id="ZliIxLHXJezebO3cyz0a-24" value="nahrání artefaktu" style="html=1;align=center;verticalAlign=middle;rounded=1;absoluteArcSize=1;arcSize=10;dashed=0;whiteSpace=wrap;" vertex="1" parent="ZliIxLHXJezebO3cyz0a-13">
          <mxGeometry x="270" y="85" width="140" height="40" as="geometry" />
        </mxCell>
        <mxCell id="ZliIxLHXJezebO3cyz0a-12" value="" style="ellipse;html=1;shape=endState;fillColor=strokeColor;" vertex="1" parent="ZliIxLHXJezebO3cyz0a-13">
          <mxGeometry x="1030" y="90" width="30" height="30" as="geometry" />
        </mxCell>
        <mxCell id="ZliIxLHXJezebO3cyz0a-29" style="edgeStyle=orthogonalEdgeStyle;rounded=0;orthogonalLoop=1;jettySize=auto;html=1;" edge="1" parent="ZliIxLHXJezebO3cyz0a-13" source="ZliIxLHXJezebO3cyz0a-26" target="ZliIxLHXJezebO3cyz0a-28">
          <mxGeometry relative="1" as="geometry" />
        </mxCell>
        <mxCell id="ZliIxLHXJezebO3cyz0a-26" value="stažení artefaktu" style="html=1;align=center;verticalAlign=middle;rounded=1;absoluteArcSize=1;arcSize=10;dashed=0;whiteSpace=wrap;" vertex="1" parent="ZliIxLHXJezebO3cyz0a-13">
          <mxGeometry x="460" y="85" width="140" height="40" as="geometry" />
        </mxCell>
        <mxCell id="ZliIxLHXJezebO3cyz0a-11" value="" style="ellipse;fillColor=strokeColor;html=1;" vertex="1" parent="ZliIxLHXJezebO3cyz0a-13">
          <mxGeometry x="20" y="90" width="30" height="30" as="geometry" />
        </mxCell>
        <mxCell id="ZliIxLHXJezebO3cyz0a-23" style="edgeStyle=orthogonalEdgeStyle;rounded=0;orthogonalLoop=1;jettySize=auto;html=1;entryX=0;entryY=0.5;entryDx=0;entryDy=0;" edge="1" parent="ZliIxLHXJezebO3cyz0a-13" source="ZliIxLHXJezebO3cyz0a-11" target="ZliIxLHXJezebO3cyz0a-22">
          <mxGeometry relative="1" as="geometry" />
        </mxCell>
        <mxCell id="ZliIxLHXJezebO3cyz0a-31" style="edgeStyle=orthogonalEdgeStyle;rounded=0;orthogonalLoop=1;jettySize=auto;html=1;" edge="1" parent="ZliIxLHXJezebO3cyz0a-13" source="ZliIxLHXJezebO3cyz0a-28" target="ZliIxLHXJezebO3cyz0a-30">
          <mxGeometry relative="1" as="geometry" />
        </mxCell>
        <mxCell id="ZliIxLHXJezebO3cyz0a-28" value="spuštění testů" style="html=1;align=center;verticalAlign=middle;rounded=1;absoluteArcSize=1;arcSize=10;dashed=0;whiteSpace=wrap;" vertex="1" parent="ZliIxLHXJezebO3cyz0a-13">
          <mxGeometry x="650" y="85" width="140" height="40" as="geometry" />
        </mxCell>
        <mxCell id="ZliIxLHXJezebO3cyz0a-32" style="edgeStyle=orthogonalEdgeStyle;rounded=0;orthogonalLoop=1;jettySize=auto;html=1;entryX=0;entryY=0.5;entryDx=0;entryDy=0;" edge="1" parent="ZliIxLHXJezebO3cyz0a-13" source="ZliIxLHXJezebO3cyz0a-30" target="ZliIxLHXJezebO3cyz0a-12">
          <mxGeometry relative="1" as="geometry" />
        </mxCell>
        <mxCell id="ZliIxLHXJezebO3cyz0a-30" value="zobrazení výsledků" style="html=1;align=center;verticalAlign=middle;rounded=1;absoluteArcSize=1;arcSize=10;dashed=0;whiteSpace=wrap;" vertex="1" parent="ZliIxLHXJezebO3cyz0a-13">
          <mxGeometry x="840" y="85" width="140" height="40" as="geometry" />
        </mxCell>
      </root>
    </mxGraphModel>
  </diagram>
</mxfile>
